<svg xmlns="http://www.w3.org/2000/svg" viewBox="0 0 500 500"><g id="freepik--background-complete--inject-507"><path d="M47.62,68.74c7.19,0,128.17.8,135.77.56.55,0,.84-.82.3-1.09-4.79-2.37-10.23-1.9-15.21-3.58-2.93-1-4.73-2.9-6.76-5.1a14,14,0,0,0-6.3-4.11,13.27,13.27,0,0,0-6.85-.21c-2.46.58-4.59,2-6.93,2.87-5.81,2.2-11.46.11-15.61-4.19-3.42-3.54-6.79-6.89-11.44-8.8a15.17,15.17,0,0,0-12.12-.16c-4.44,2-7.48,6-11.65,8.48C85.88,56.3,80,55.62,74.51,56.49S64.86,62,60.08,64.6a10.27,10.27,0,0,1-5.22,1.62c-1.07,0-2.12-.32-3.18-.45-1.65-.2-3.21-.16-4.32,1.22C47.09,67.32,47.15,68.74,47.62,68.74Z" style="fill:#ebebeb"></path><path d="M353.25,243.84c5.24,0,93.57.58,99.12.41.4,0,.62-.6.22-.8-3.5-1.73-7.47-1.38-11.11-2.61-2.14-.72-3.45-2.12-4.93-3.72a10.25,10.25,0,0,0-4.6-3,9.64,9.64,0,0,0-5-.16c-1.8.43-3.35,1.45-5.06,2.1-4.25,1.6-8.37.08-11.4-3.06-2.5-2.59-4.95-5-8.35-6.42a11.12,11.12,0,0,0-8.85-.13c-3.24,1.47-5.46,4.42-8.51,6.2-3.6,2.11-7.92,1.61-11.9,2.25s-7.05,4-10.54,5.92a7.52,7.52,0,0,1-3.81,1.18,22.72,22.72,0,0,1-2.32-.33,3.17,3.17,0,0,0-3.15.89C352.86,242.81,352.9,243.84,353.25,243.84Z" style="fill:#ebebeb"></path><path d="M244.38,203.17c5.24,0,93.57.58,99.12.41.4,0,.62-.6.22-.8-3.5-1.73-7.47-1.38-11.11-2.61-2.14-.72-3.45-2.12-4.93-3.72a10.25,10.25,0,0,0-4.6-3,9.64,9.64,0,0,0-5-.16c-1.8.43-3.35,1.45-5.06,2.1-4.25,1.6-8.37.08-11.4-3.06-2.5-2.59-4.95-5-8.35-6.42a11.12,11.12,0,0,0-8.85-.13c-3.24,1.47-5.46,4.42-8.5,6.2-3.61,2.11-7.93,1.61-11.91,2.25s-7.05,4-10.54,5.92a7.52,7.52,0,0,1-3.81,1.18,22.72,22.72,0,0,1-2.32-.33,3.17,3.17,0,0,0-3.15.89C244,202.14,244,203.17,244.38,203.17Z" style="fill:#ebebeb"></path><path d="M133.75,156.77c5.25,0,93.57.59,99.13.41.39,0,.61-.6.21-.8-3.5-1.73-7.47-1.38-11.1-2.61-2.14-.72-3.46-2.12-4.94-3.72a10.2,10.2,0,0,0-4.6-3,9.64,9.64,0,0,0-5-.16c-1.79.43-3.35,1.46-5.06,2.1-4.24,1.6-8.37.08-11.4-3.06-2.49-2.59-5-5-8.35-6.42a11.08,11.08,0,0,0-8.85-.12c-3.24,1.46-5.46,4.42-8.5,6.19-3.61,2.11-7.92,1.61-11.91,2.25s-7,4-10.54,5.92a7.49,7.49,0,0,1-3.81,1.18,23.13,23.13,0,0,1-2.32-.33,3.17,3.17,0,0,0-3.15.89C133.36,155.74,133.4,156.77,133.75,156.77Z" style="fill:#ebebeb"></path><path d="M214.2,124.26c.1.3,139.21,0,137.46,0-.8,0,1.21-1.19.43-1.58-4.53-2.25-9.48-2.31-14.41-2.76a22.46,22.46,0,0,1-8.43-2c-2.62-1.37-4.25-3.75-6.11-6a26.18,26.18,0,0,0-23.76-9c-9.89,1.55-17.69,9.09-27.6,10.47-5.95.84-11.58-1.47-17.4-2.28a21.35,21.35,0,0,0-13.06,2.39c-3.14,1.56-6,2.87-9.58,3.11-2.73.19-5.46-.12-8.19-.15a18.36,18.36,0,0,0-12.05,4.82C211.06,121.66,209.66,124.26,214.2,124.26Z" style="fill:#ebebeb"></path><path d="M341,333.81a6.93,6.93,0,0,1-5.93.39,3.32,3.32,0,0,0-4.64,3.05,3.26,3.26,0,0,0,.42,1.62l8.44,15.24-15.39,8.53-11.08,6.14-6,3.32-9.29,5.16-4.12-7.43L289,362l-6.22-11.21,0-.05-8.46-15.25,15.24-8.46a3.35,3.35,0,0,1,4.54,1.31,3.41,3.41,0,0,1,.4,1.59,3.36,3.36,0,0,1-.27,1.33A7,7,0,1,0,302,327a3.45,3.45,0,0,1-2.4-1.67,3.26,3.26,0,0,1-.42-1.62,3.32,3.32,0,0,1,1.71-2.91l15.24-8.46,8.45,15.25a3.35,3.35,0,0,0,4.54,1.3,3.47,3.47,0,0,0,1.67-2.4,6.95,6.95,0,1,1,10.2,7.31Z" style="fill:#ebebeb"></path><path d="M228.86,390.25a5.54,5.54,0,0,1-10.08-2.67,2.72,2.72,0,0,0-1.14-2,2.64,2.64,0,0,0-3.68.68L209.29,393l-3.2,4.65-11.43-7.86a2.65,2.65,0,0,1-.68-3.69,2.71,2.71,0,0,1,2-1.14,5.54,5.54,0,1,0-5.77-4,2.75,2.75,0,0,1-.34,2.3,2.64,2.64,0,0,1-3.69.69l-11.43-7.86,3.7-5.39,4.19-6.09,5.78-8.41,3.39-4.93,4.47-6.5,11.43,7.86a2.65,2.65,0,0,1,.68,3.69,2.71,2.71,0,0,1-2,1.14,5.54,5.54,0,1,0,5.77,4,2.77,2.77,0,0,1,.34-2.31,2.66,2.66,0,0,1,2.19-1.15,2.61,2.61,0,0,1,1.5.47l11.43,7.86-4,5.87-3.86,5.62a2.64,2.64,0,0,0,.72,3.63,2.57,2.57,0,0,0,1.49.46,2.84,2.84,0,0,0,.81-.12,5.54,5.54,0,0,1,6.11,8.45Z" style="fill:#ebebeb"></path><path d="M249.35,257.79a8,8,0,0,1-15.08,1,4,4,0,0,0-2.52-2.27,4.3,4.3,0,0,0-1.06-.15,3.88,3.88,0,0,0-3.7,2.79l-5.53,19.33-19.34-5.53a3.85,3.85,0,0,1-2.64-4.76,3.92,3.92,0,0,1,2.28-2.51,8,8,0,1,0-9.78-2.8,3.92,3.92,0,0,1,.6,3.33,3.88,3.88,0,0,1-4.75,2.64l-19.35-5.55L174,243.94a3.83,3.83,0,0,0-2.64-4.75,3.67,3.67,0,0,0-1-.15,4,4,0,0,0-2.29.74,8,8,0,1,1,2.8-9.77,3.9,3.9,0,0,0,2.5,2.26,4,4,0,0,0,1.07.16,3.88,3.88,0,0,0,3.69-2.79l5.54-19.33,5.65,1.61L203,215.85l14.23,4.07L231.36,224l5.28,1.51-5.55,19.35a3.87,3.87,0,0,0,2.64,4.75,3.6,3.6,0,0,0,1,.15,4,4,0,0,0,2.31-.75,8,8,0,0,1,12.29,8.81Z" style="fill:#ebebeb"></path></g><g id="freepik--Floor--inject-507"><path d="M459.43,276.75l-136.16.55.55-.55.05,20.65-.29-.51a120.68,120.68,0,0,1,30.59,25.59,105.46,105.46,0,0,1,9.5,13.5,91.94,91.94,0,0,1,6.28,12.7c.56,1.21,1.16,3.18,1.61,4.44a91.44,91.44,0,0,1,3.71,14.9c.22,1.69.46,4.18.67,5.88a88.14,88.14,0,0,1-12.25,52.16l.09-.69,11.1,39.21.43,1.52-1.53-.39L336.32,456l.82-.17c-37.44,29.21-89.86,35.91-134.48,21-64.18-20.57-103.32-89.17-60.78-148.81a116.71,116.71,0,0,1,34.92-31.19l-.29.51.05-20.64c2.95,1.37-136.41-.38-136,0l136.54-.54h.55v.54l0,20.64v.34A115.57,115.57,0,0,0,143,328.9c-41.48,58.92-3,126,60.24,146.18,44,14.58,95.75,8,132.7-20.69l.37-.29.45.12,37.44,9.72-1.1,1.13-11-39.22-.1-.36A86.87,86.87,0,0,0,374.31,374c-.18-1.67-.46-4.1-.64-5.77a90.48,90.48,0,0,0-3.57-14.65c-.21-.76-.9-2.57-1.12-3.3s-1.93-4.61-2.25-5.36a102.85,102.85,0,0,0-5.5-10.24,97.33,97.33,0,0,0-9.66-13.09,117.32,117.32,0,0,0-28.6-23.7l-.29-.18v-.34l.05-20.65v-.54c.52-.35,136.15.8,136.7.54Z" style="fill:#263238"></path></g><g id="freepik--Lightbulb--inject-507"><g style="opacity:0.4"><path d="M280.12,387.68c-28.2-7.7-44.71,12.16-44.71,12.16-4.77.18-16.16-1.46-16.16-1.46l-11,30.48s9.81,6,13.37,9.19c0,0,0,25.83,26.67,37.9,17.87,8.11,49.39,5.19,61.85-23.92l-4.72-.29-2.8-.18-5.92-9.83-23.37-2.22-3-4.91-11.57-.88,15.43-4.13,2.74,5.72,23.53-3.85,7.44,7.73,1.58-.54,4.7-1.63C317.18,411.06,297.24,392.35,280.12,387.68Z" style="fill:#ebebeb"></path></g><g style="opacity:0.7000000000000001"><path d="M278.63,391.39c-25.8-7-40.89,11.14-40.89,11.14-4.37.15-19-2.85-19-2.85l-10.06,27.89s13.14,7,16.41,9.9c0,0,0,23.62,24.37,34.66,16.05,7.28,44.1,4.84,55.92-20.39l-2.8-.18-5.92-9.83-23.37-2.22-3-4.91-11.57-.88,15.43-4.13,2.74,5.72,23.53-3.85,7.44,7.73,1.58-.54C313.6,413.8,294.74,395.79,278.63,391.39Z" style="fill:#dbdbdb"></path></g><rect x="229.38" y="407.28" width="3" height="51.9" transform="translate(-259.62 413.12) rotate(-59.6)" style="fill:#a6a6a6"></rect><rect x="237.96" y="383.5" width="3" height="51.9" transform="translate(-203.21 579.83) rotate(-80.73)" style="fill:#a6a6a6"></rect><path d="M251.46,445.37c-.38-.22-9.1-5.43-7.44-10a3.87,3.87,0,0,1,2.27-2.09c-2.56-2.93-4.15-6.33-3.16-9.05s3.89-4,7.27-4.48a5.43,5.43,0,0,1-.07-3.81c1.41-3.91,11.09-3.3,12.19-3.21l-.07,1c-2.78-.2-10.21-.15-11.18,2.56a4.5,4.5,0,0,0,.12,3.35,24,24,0,0,1,9.66,1c2.9,1.05,4.22,2.62,3.61,4.31-.75,2.08-3.33,2.61-6.74,1.39a13.35,13.35,0,0,1-7.1-5.69c-3.22.44-5.95,1.66-6.75,3.89-.89,2.45.72,5.62,3.22,8.36a16.83,16.83,0,0,1,9.34.35c2.83,1,4,2.78,3.3,4.82-.64,1.77-2.54,2.24-5.21,1.27a21.78,21.78,0,0,1-7.71-5.29,3.15,3.15,0,0,0-2,1.63c-1.15,3.17,4.67,7.44,7,8.82Zm-3.36-11.62a20.79,20.79,0,0,0,7,4.66c1.49.54,3.37.86,3.92-.67.68-1.88-1.08-3-2.69-3.54A16,16,0,0,0,248.1,433.75Zm3.77-13.2a13.14,13.14,0,0,0,6.39,4.86c2.11.76,4.81,1,5.46-.79.56-1.55-1.92-2.63-3-3A22.36,22.36,0,0,0,251.87,420.55Z" style="fill:#a6a6a6"></path><rect x="182.92" y="398.65" width="40.59" height="22.34" transform="translate(-251.24 461.99) rotate(-70.17)" style="fill:#c7c7c7"></rect><path d="M198,391.27c-4.79.81-9.9,3.83-12.86,12s-1,13.81,2.22,17.49Z" style="fill:#c7c7c7"></path><path d="M198,391.27a14.82,14.82,0,0,0-4.12,1.31l-7.46,27c.3.42.61.82.94,1.2Z" style="fill:#a6a6a6"></path><polygon points="217 391.96 198.69 431.03 200.53 431.69 218.84 392.62 217 391.96" style="fill:#a6a6a6"></polygon><polygon points="211.46 389.96 193.15 429.03 194.98 429.69 213.29 390.62 211.46 389.96" style="fill:#a6a6a6"></polygon><polygon points="205.91 387.95 187.6 427.03 189.43 427.69 207.74 388.62 205.91 387.95" style="fill:#a6a6a6"></polygon><g style="opacity:0.5"><path d="M258.16,468.63c.27-1.48,8.15-.69,19.32-5.44,5-2.11,14.33-13.53,18.27-11s-4.67,12.58-13.6,16C267.79,473.66,257.91,470,258.16,468.63Z" style="fill:#fff"></path><path d="M281.5,399.2c.92-2.58,4.93-1.14,4,1.44S280.57,401.78,281.5,399.2Z" style="fill:#fff"></path><path d="M246.85,401c-.56-1.8,8.21-6.36,16.84-6.73,7.17-.3,15.22,2.11,15.06,4s-11.4-.91-16.13-.28C256.64,398.73,247.46,402.87,246.85,401Z" style="fill:#fff"></path></g></g><g id="freepik--character-2--inject-507"><path d="M337.23,277.84c1.61.5,48.69-.52,50.41-1.66.66-.43-3.37-45-3.37-45l-29.86.57,3.4,29.84s-17.38,8.23-19.14,9.69S335.61,277.34,337.23,277.84Z" style="fill:#ffc4c0"></path><path d="M337.23,277.84c1.61.5,48.7-.52,50.41-1.67.21-.13.27-4.65-.48-10.55-8.53,1.43-39,6.11-41.38,4.71-1.66-1-.19-2.49,1.16-3.51a83,83,0,0,0-8.27,4.43C336.93,272.7,335.62,277.34,337.23,277.84Z" style="fill:#263238"></path><path d="M357,254.4l29.31-.41s-5.81-70.21-5.57-71.56c.31-1.73,21.11-83.28,21.11-83.28h-28s-22.06,76-22.85,83.33C349.71,194.31,357,254.4,357,254.4Z" style="fill:#37474f"></path><path d="M383.64,247.37c-1.73-.12-3.48-.1-5.22-.12s-3.47,0-5.21,0c-3.48,0-6.95.08-10.43.18l-2.85.1c-1,0-2,.22-3,.26a.06.06,0,0,0,0,.12c.85,0,1.71.14,2.56.16s1.77,0,2.66,0c1.74,0,3.48,0,5.21,0,3.48,0,7-.07,10.43-.22,2-.08,3.94-.1,5.9-.3A.09.09,0,0,0,383.64,247.37Z" style="fill:#263238"></path><path d="M395.67,105.73c-2.51,8.87-4.79,17.81-7,26.75s-4.48,17.88-6.7,26.82q-1.67,6.7-3.34,13.42c-1.08,4.35-2.34,8.73-2.61,13.23s.31,9.18.7,13.74.77,9.15,1.17,13.73c.8,9.15,1.57,18.32,2.57,27.46l.36,3.43c0,.09.16.09.15,0-.6-9.16-1.24-18.32-2-27.47q-.54-6.87-1.12-13.73c-.37-4.57-.9-9.16-1-13.74a48.75,48.75,0,0,1,1.82-13.52q1.63-6.57,3.29-13.13,3.35-13.41,6.69-26.82c2.49-10,5-20,7.16-30.14C395.76,105.7,395.68,105.68,395.67,105.73Z" style="fill:#263238"></path><path d="M401.82,99.15s-8.92,35-15.17,59.61l-11.9-59.61Z" style="fill:#263238"></path><path d="M372.39,278c1.61.5,48.7-.52,50.41-1.67.67-.42-1.79-45-1.79-45l-29.47.57L393,261.67s-17.38,8.23-19.14,9.69S370.78,277.45,372.39,278Z" style="fill:#ffc4c0"></path><path d="M372.39,278c1.61.5,48.7-.52,50.41-1.67.21-.13.16-4.54,0-10.56-8.54,1.43-39.49,6.12-41.86,4.72-1.66-1-.19-2.49,1.16-3.51a83,83,0,0,0-8.27,4.43C372.09,272.81,370.78,277.45,372.39,278Z" style="fill:#263238"></path><path d="M374.75,99.14s1.58,19.78,4.84,24.74a49.92,49.92,0,0,1,8.11,4.05s2,52.92,2,56.09c-.13,11.89,2.91,69.8,2.91,69.8l29.56-.29s-3.06-65.47-3.08-69.83c0-4.21-2-30.78-3.79-53.82,0,0,2.63-7.36,2.34-11.07-.71-9-4.75-19.66-4.75-19.66Z" style="fill:#37474f"></path><path d="M385.15,118c-.11-.74-.22-1.48-.34-2.22-.2-1.36-.48-2.71-.72-4.06-.54-3.06-1.1-6.14-1.78-9.18,0-.07-.14,0-.13,0,.12,1.23.26,2.46.43,3.68s.3,2.45.47,3.67c.34,2.42.68,4.84,1.09,7.25.16.93.74,2.6-.6,2.89-1.06.23-1.83-.81-2.15-1.69a22,22,0,0,1-.71-3.34c-.22-1.22-.41-2.45-.58-3.68q-.57-4-1.23-8c0-.08-.13-.06-.13,0a80.31,80.31,0,0,0,.59,8.2c.17,1.3.37,2.6.59,3.9a14.08,14.08,0,0,0,.89,3.63,3,3,0,0,0,2.22,1.78h.06a.1.1,0,0,0,0,.08c0,.43,0,.87.05,1.3s.13.86.21,1.28a9.14,9.14,0,0,0,.34,1.27,6,6,0,0,0,.23.59,6.22,6.22,0,0,0,.35.54c0,.07.13,0,.14-.05h0a1.48,1.48,0,0,1,0-.21v0h0c0-.12,0-.25,0-.38s-.08-.41-.12-.62c-.09-.41-.21-.82-.32-1.23s-.2-.82-.3-1.23-.25-.83-.34-1.26l0,0a1.93,1.93,0,0,0,1.86-1.17A3.34,3.34,0,0,0,385.15,118Z" style="fill:#263238"></path><path d="M390.1,128.57a23.51,23.51,0,0,0-2.79-1.83,26.39,26.39,0,0,0-3.17-1.64c-2.13-.93-4.34-1.56-6.54-2.29-.07,0-.11.09-.05.11,2.14.85,4.19,2,6.25,3,1,.5,2.05,1,3.08,1.43s2.07,1,3.14,1.38C390.1,128.75,390.16,128.63,390.1,128.57Z" style="fill:#263238"></path><path d="M406.78,112.06c-1.5,0-6.7-.38-8.24-2.11a10.6,10.6,0,0,1-1.93-3.47,36,36,0,0,1-1.17-4.21c0-.07-.11,0-.12,0a16.82,16.82,0,0,0,.61,4.78,7.33,7.33,0,0,0,1.92,3.72,7.49,7.49,0,0,0,4.08,1.49,18.82,18.82,0,0,0,4.86-.06A.08.08,0,0,0,406.78,112.06Z" style="fill:#263238"></path><path d="M371.21,112.46a4.87,4.87,0,0,0,2-1.2c1.14-1.71,1.42-7.16,1.51-8.59,0-.07,0,0,0,0,0,1.61-.06,3.24-.19,4.79a17,17,0,0,1-.59,3.72,3,3,0,0,1-2.76,1.42S371.18,112.46,371.21,112.46Z" style="fill:#263238"></path><path d="M420.84,247.81c-1.73-.13-3.48-.11-5.22-.13s-3.47,0-5.21,0c-3.48,0-7,.09-10.43.18l-2.85.1c-1,.05-2,.22-3,.26a.07.07,0,0,0,0,.13c.85,0,1.71.13,2.56.15s1.77,0,2.66,0l5.21,0c3.48,0,7-.08,10.43-.22,2-.08,3.94-.11,5.9-.3A.09.09,0,0,0,420.84,247.81Z" style="fill:#263238"></path><path d="M417.24,244h0a.37.37,0,0,0,.34-.38L410.92,129c.09-.51,2-6.91,2.14-10.18.18-3.45-3.4-16.92-3.55-17.49a.36.36,0,0,0-.44-.26.37.37,0,0,0-.26.44c0,.14,3.7,13.93,3.53,17.28s-2.12,10.07-2.13,10.12,6.67,114.7,6.67,114.7A.36.36,0,0,0,417.24,244Z" style="fill:#263238"></path><path d="M396.4,36c3.48,4.42,3.82,11,3.82,11s3,7,1.51,10.39a6.49,6.49,0,0,1-4.63,3.86l.61-1.91s-1.58,2.36-5.95,2.86-9.82-1.5-12.56-3.33a11.25,11.25,0,0,1-3.83-4.3l.75,3a8.5,8.5,0,0,1-6-5.33c-1.91-4.68,5.89-10.12,6.65-11.41s2.72-11.08,12.91-8.11C389.66,32.7,394,32.94,396.4,36Z" style="fill:#263238"></path><path d="M398.63,61.18a6.61,6.61,0,0,0,3.1-2.55,6,6,0,0,0,1.13-3.81,13.32,13.32,0,0,0-1.42-4.63c-.67-1.53-1.46-3-2.11-4.54,0-.09.1-.14.15-.07a37.13,37.13,0,0,1,2.16,3.72A17,17,0,0,1,403.26,53a6.56,6.56,0,0,1,0,3.7,6.38,6.38,0,0,1-1.63,2.58,13.67,13.67,0,0,1-3,2C398.61,61.31,398.56,61.2,398.63,61.18Z" style="fill:#263238"></path><path d="M369.77,47.6c1.69-3.48,5.25-5.4,7.63-8.33a31.14,31.14,0,0,1,3.94-4.71s.1,0,.06.08a24.43,24.43,0,0,0-3.2,4.17,26.89,26.89,0,0,1-3.62,3.92c-2.36,2.22-5.18,4.84-5.13,8.36a4.59,4.59,0,0,0,2.33,4.21c.06,0,0,.12,0,.09a5.12,5.12,0,0,1-2.51-3.22A6.6,6.6,0,0,1,369.77,47.6Z" style="fill:#263238"></path><path d="M369.5,48.57a6.81,6.81,0,0,1,1.39-3.84,9.56,9.56,0,0,1,3.32-2.41,10.64,10.64,0,0,0,3.87-2.64s.12,0,.08.08c-1.59,2.1-4.21,2.85-6.13,4.55a7,7,0,0,0-1.56,7.76,11.14,11.14,0,0,0,3,4.2s0,.06,0,0C371.19,54.39,369.33,51.65,369.5,48.57Z" style="fill:#263238"></path><path d="M387.85,70.33C377.3,82.11,365.74,94.24,359.7,93.82c-5.08-.34-15.76-2.76-28.86-7.34-2.42-.85,9.58-17.94,11.2-17.12,4.29,2.15,17.92,6.13,18.71,5.72,1-.53,13.44-7.73,21.89-12.17C394,56.93,393.3,64.24,387.85,70.33Z" style="fill:#ffc4c0"></path><path d="M333.76,87.16c-2.16-.3-11.94-2.56-14.52-3.8s-9.74-5.34-9-7.42,2.94-1,2.94-1-2.75-2.22-1.81-4.23,4.3-.3,4.3-.3S313,67.9,314.11,66s4.17.35,4.17.35-2.54-2.15-1-3.38c1.89-1.47,6.12,3,9.07,4.18.67.26,13.95,4.34,13.95,4.34Z" style="fill:#ffc4c0"></path><path d="M318,66.12c3.12,3.3,5.05,4.2,9.38,5.31a.07.07,0,0,1,0,.14c-4.33-.7-6.92-1.49-9.53-5.31C317.72,66.08,317.86,66,318,66.12Z" style="fill:#263238"></path><path d="M315.44,70.12c3.54,3.14,5.63,4.14,10.08,5.63.06,0,0,.13,0,.11-4.48-1.1-7.05-1.94-10.17-5.54C315.17,70.16,315.28,70,315.44,70.12Z" style="fill:#263238"></path><path d="M313.42,75c3.64,2.79,5.89,4,10.39,4.88a.09.09,0,0,1,0,.17,15.28,15.28,0,0,1-10.45-4.93C313.14,74.89,313.19,74.8,313.42,75Z" style="fill:#263238"></path><path d="M343.36,70.74a55,55,0,0,0-5.51-6.08c-2-1.62-11.58-4.93-12.41-2.9-1.08,2.63,4.09,5.63,6.81,6.77,0,0-2.5,6.07.74,9S343.36,70.74,343.36,70.74Z" style="fill:#ffc4c0"></path><path d="M325.38,62.58c.74,3.1,4.41,4.37,7,5.67a.26.26,0,0,1,.08.43c-.88,2.61-1.35,6.56.39,8.89a.07.07,0,0,1-.1.09c-2.21-2.25-2.06-6.16-.91-9-2.65-1.29-6.27-2.73-6.46-6.11C325.35,62.56,325.37,62.56,325.38,62.58Z" style="fill:#263238"></path><path d="M343.83,69.76,333.65,88.83s20.64,6.25,27.61,5.31c5.22-.7,20.47-14.86,27.74-24.81,7.43-10.18-.14-10.32-6.09-6.84s-21.81,12-22.27,12S343.83,69.76,343.83,69.76Z" style="fill:#FFC727"></path><path d="M343.86,80.28q1.11-2.06,2.23-4.09c.75-1.36,1.46-2.76,2.31-4,0-.06.14,0,.11,0-.58,1.37-1.31,2.7-2,4s-1.44,2.83-2.17,4.24c-1.44,2.79-3,5.51-4.58,8.22a.06.06,0,0,1-.1-.06C341,85.81,342.38,83,343.86,80.28Z" style="fill:#263238"></path><path d="M389,69.33c-7.27,10-22.52,24.11-27.74,24.81-4.25.58-13.56-1.52-20.19-3.24l48.81-30.43C392.54,60.8,393.39,63.31,389,69.33Z" style="opacity:0.1"></path><path d="M374.89,91.38l-2.36,11.39,6.79.26L380.93,99l2,4.27,33,.45-4.19-9.47c-3.16-9.08-6.95-22.7-13-29.59-4.78-5.48-10.57-5.24-14.36-1.6-1,.92-10.68,14.29-12,19.88C371.51,86.88,374.89,91.38,374.89,91.38Z" style="fill:#FFC727"></path><path d="M387.46,89.47a31.37,31.37,0,0,0-5.62.48c-.92.17-1.84.4-2.75.65-.46.13-.92.23-1.38.34a5.08,5.08,0,0,1-1.45.16s-.05.08,0,.08a9,9,0,0,0,1.37.13,8.62,8.62,0,0,0,1.33-.16c.94-.16,1.88-.38,2.82-.57,1.89-.36,3.79-.72,5.69-.92C387.55,89.65,387.55,89.47,387.46,89.47Z" style="fill:#263238"></path><path d="M391.8,92a35.17,35.17,0,0,0-4.55-.78,19.83,19.83,0,0,0-2.31-.09l-1.11,0c-.41,0-.82.1-1.22.11,0,0-.05.08,0,.08.38,0,.76.09,1.14.12l1.15.09c.77.07,1.53.14,2.3.19,1.54.11,3.06.24,4.59.42C391.87,92.14,391.88,92,391.8,92Z" style="fill:#263238"></path><path d="M394.85,61.4a63.19,63.19,0,0,1-6.55,12.9,101.14,101.14,0,0,1-6.52,7.92,41.87,41.87,0,0,1-.75-6.33c.05-3.29.86-6.74,2.54-11.76a12.88,12.88,0,0,1,.91-1.12A8.76,8.76,0,0,1,394.85,61.4Z" style="fill:#ebebeb"></path><path d="M381.78,82.22c-.68,2.89-1.34,6.08-.35,8.94-.11,2.6-.23,5.2-.5,7.79-.1-2.59-.05-5.18,0-7.76-1-2.45-.27-6.29.84-9Z" style="fill:#263238"></path><path d="M383.78,85.34a.9.9,0,0,1-1.8-.17.9.9,0,0,1,1.8.17Zm0,0a.65.65,0,1,0-1.3-.12.65.65,0,1,0,1.3.12Z" style="fill:#263238"></path><path d="M383.76,91.35a.9.9,0,0,1-1.8-.17.9.9,0,0,1,1.8.17Zm0,0a.65.65,0,1,0-1.3-.12.65.65,0,0,0,1.3.12Z" style="fill:#263238"></path><path d="M383.74,97.35a.9.9,0,0,1-1.79-.16.9.9,0,0,1,1.79.16Zm0,0a.65.65,0,1,0-1.3-.12.65.65,0,1,0,1.3.12Z" style="fill:#263238"></path><polygon points="383.68 69.53 386.08 67.37 387.29 70.38 385.92 71.78 383.5 71.41 383.68 69.53" style="fill:#263238"></polygon><path d="M385.49,77.93c-2.06,2.51-3.71,4.29-3.71,4.29s-.33-1.71-.56-3.52l2.28-7.29,2.42.37Z" style="fill:#263238"></path><path d="M383.25,64c-1.36,2-2.76,4-4.15,6L379,69.7l2.59.69-.23.28-2.45,3.07.05-.31,3.17,8.67-.57-.17c3.22-2.55,6.49-5,9.73-7.56l-.1.36-.95-3-.07-.23.21-.12,3.94-2.12-.12.19c.12-2.51.28-5,.46-7.52,0,2.51,0,5,0,7.54v.12l-.12.07-3.87,2.24.13-.35,1,3,.07.21-.18.14c-3.36,2.64-6.69,5.33-10.08,7.93l-.16-.47-3.09-8.7-.06-.18.12-.13,2.59-3,.12.36L378.6,70c1.54-2,3.08-4,4.65-6Z" style="fill:#263238"></path><path d="M392.82,62.13c-.15.73-3.49,5.57-6.83,5.52-1.09,0-1.24-6-1.24-6l-.12-.43-1.55-6.11,7.08-4.84,1-.65s.31,1.7.68,3.82c0,.1,0,.19.06.3s.05.23.06.34c.06.32.12.64.17,1s.09.48.12.74.07.51.11.77A39.78,39.78,0,0,1,392.82,62.13Z" style="fill:#ffc4c0"></path><path d="M391.87,53.47a12.64,12.64,0,0,1-7.24,7.78l-1.55-6.11,7.08-4.84,1-.65S391.5,51.35,391.87,53.47Z" style="fill:#263238"></path><path d="M375.69,42.91c-3.46,10.5,2.44,13.76,4.7,14.51,2.06.67,9.15,2.71,13.68-7.38s.74-15-3.88-16.81S379.15,32.41,375.69,42.91Z" style="fill:#ffc4c0"></path><path d="M377.6,42.54c.25.06.5.08.76.12a1.29,1.29,0,0,0,.8,0,.4.4,0,0,0,.17-.45,1,1,0,0,0-.83-.56,1.47,1.47,0,0,0-1,.15A.43.43,0,0,0,377.6,42.54Z" style="fill:#263238"></path><path d="M384.14,42.82a7.26,7.26,0,0,0,.67.38,1.24,1.24,0,0,0,.76.25.38.38,0,0,0,.31-.36,1,1,0,0,0-.57-.81,1.47,1.47,0,0,0-1-.22A.42.42,0,0,0,384.14,42.82Z" style="fill:#263238"></path><path d="M383.07,46s.05.05,0,.08c-.23.72-.36,1.59.23,2,0,0,0,.05,0,0C382.55,47.78,382.74,46.63,383.07,46Z" style="fill:#263238"></path><path d="M383.93,45.39c1.2.24.65,2.62-.46,2.41S382.92,45.2,383.93,45.39Z" style="fill:#263238"></path><path d="M384.37,45.63c.18.18.33.47.57.55s.57-.1.81-.3c0,0,0,0,0,0-.1.46-.39.89-.9.84s-.68-.52-.69-1C384.2,45.66,384.3,45.55,384.37,45.63Z" style="fill:#263238"></path><path d="M378.87,44.48s-.06,0-.07.05c-.14.75-.43,1.58-1.16,1.67,0,0,0,0,0,0C378.48,46.31,378.86,45.21,378.87,44.48Z" style="fill:#263238"></path><path d="M378.38,43.56c-1.17-.36-1.8,2-.71,2.34S379.36,43.86,378.38,43.56Z" style="fill:#263238"></path><path d="M377.85,43.58c-.22.08-.47.25-.7.21s-.38-.36-.48-.65c0,0,0,0-.05,0-.13.45-.11,1,.31,1.16s.77-.13,1-.55C378,43.69,377.94,43.55,377.85,43.58Z" style="fill:#263238"></path><path d="M381.75,52c-.21.14-.44.35-.71.32a2,2,0,0,1-.77-.34,0,0,0,0,0,0,0,1,1,0,0,0,.87.58.82.82,0,0,0,.71-.55S381.78,51.93,381.75,52Z" style="fill:#263238"></path><path d="M378.92,48a15.29,15.29,0,0,0-.55,1.58,11.47,11.47,0,0,1,2.89,1.18c.21.13.26-.06,0-.28a4.68,4.68,0,0,0-2.38-1.24c0-.15.68-1.62.6-1.65a4.24,4.24,0,0,0-1.24,0c.81-2.25,2-4.34,2.76-6.58,0-.09-.09-.14-.13-.07a38.67,38.67,0,0,0-3.27,7C377.52,48.2,378.69,48.07,378.92,48Z" style="fill:#263238"></path><path d="M379.61,50s.19,1.37.95,1.68,1.42-.67.53-1.36A2.75,2.75,0,0,0,379.61,50Z" style="fill:#263238"></path><path d="M379.82,50.78a1.53,1.53,0,0,0,.74.89.67.67,0,0,0,.95-.34h0v0C380.71,50.57,380.16,50.59,379.82,50.78Z" style="fill:#ff99ba"></path><path d="M393.3,50c-2.07-.08-1.82-4.81-1.82-4.81s-8.41-2.88-8-10a12.09,12.09,0,0,1-7.08,5.53S378,33,384.35,32.51c0,0,8-1.52,11.32,5.2S394.69,50,393.3,50Z" style="fill:#263238"></path><path d="M383.55,34.61a7.88,7.88,0,0,0-.14,3.28A8.15,8.15,0,0,0,384.57,41c.14.25.33.45.49.68l.25.33.29.3c.2.2.39.4.6.59l.66.51a4,4,0,0,0,.33.24l.35.21.72.42c.49.23,1,.44,1.51.63-.46-.3-.94-.54-1.39-.84l-.66-.47-.33-.23-.3-.26-.6-.53c-.19-.19-.36-.39-.54-.58l-.27-.3-.23-.32a6.29,6.29,0,0,1-.46-.65,9.53,9.53,0,0,1-1.44-4.5A9.74,9.74,0,0,1,383.55,34.61Z" style="fill:#263238"></path><path d="M390.9,49.12s3.14-2.81,4.47-1.61-1.59,5.65-3.54,5.89a1.87,1.87,0,0,1-2.21-1.55Z" style="fill:#ffc4c0"></path><path d="M394.5,48.76s0,.05,0,.05a4.75,4.75,0,0,0-3.06,2.32,1,1,0,0,1,1.57.08s0,.08-.05.06a1.14,1.14,0,0,0-1.32.1,5.2,5.2,0,0,0-.83.86c-.08.1-.27,0-.2-.13l0,0C391,50.46,392.75,48.52,394.5,48.76Z" style="fill:#263238"></path><path d="M384.61,61.27l1.73,5.12,6.58-6,1.65,2.14s-6.66,9.72-6.67,9.26l-1.82-4.43-3.15,2.83.67-7.52Z" style="fill:#ebebeb"></path><path d="M383.05,66.46c.15-1.23.27-2.49.48-3.72,0,0,.08-.06.09,0,.18,1.21-.43,5.95-.49,7.09v0c.14-.12,2.92-2.48,2.94-2.44.41.71,1.75,3.94,1.83,4.23,1.06-1.54,5.5-7.62,6.72-9.06,0,0,.1,0,.07,0-.94,1.64-6.69,9.66-6.76,9.64a46.41,46.41,0,0,1-1.9-4.69,32.78,32.78,0,0,1-3.3,3A40,40,0,0,1,383.05,66.46Z" style="fill:#263238"></path><polygon points="383.68 69.53 386.08 67.37 387.29 70.38 385.92 71.78 383.5 71.41 383.68 69.53" style="fill:#263238"></polygon><path d="M403,70.85c8.54,15.13,14.92,37.41,10.56,41.57-4.87,4.63-16.71-15.93-16.36-16.87.27-.71.23-11.3-.95-23.43S400.86,67.11,403,70.85Z" style="fill:#ffc4c0"></path><path d="M397.31,98.37c0-1.74-1.61-20.48-2-27.36s2.93-8.23,7.78-.65,12.11,23.69,12.31,34.72c.2,10.63-5,10.16-10.61,3.69A73,73,0,0,1,397.31,98.37Z" style="fill:#FFC727"></path><path d="M397.31,98.37c-.11-2.19-.25-4.38-.39-6.56s-.32-4.37-.48-6.56l-.56-6.55-.3-3.28c-.12-1.09-.22-2.18-.34-3.27.05,1.1.12,2.19.18,3.29l.21,3.28.48,6.55c.18,2.19.35,4.37.55,6.56S397.07,96.19,397.31,98.37Z" style="fill:#263238"></path><path d="M395.55,77.23a13.28,13.28,0,0,0-.41-1.68c-.09-.28-.18-.55-.28-.82s-.21-.54-.32-.81a7.16,7.16,0,0,0,.36,1.7A8.9,8.9,0,0,0,395.55,77.23Z" style="fill:#263238"></path><path d="M412.37,113.06c-5,1.36-11.1-2.48-29-12.27-2.48-1.35,2.11-22,4.83-20.73,3.42,1.65,16.36,8.79,17.24,9.44C412.86,94.91,415.74,112.14,412.37,113.06Z" style="fill:#ffc4c0"></path><path d="M393.7,84.14s-5.64-5.25-9.49-8.52c-2.15-1.82-6.12-4.61-8.31-5.23-3.27-.92-17.57-2.68-18.07.78-.45,3.12,12,3.08,12,3.08s-12.59-1.07-12.44,2.8S371.64,79,371.64,79s-13-.8-12.18,3.16c.59,3,13.45,2,13.45,2s-11.15-.61-10.67,2.49c.52,3.44,12.45,3.23,12.45,3.23,2.53,7.7,6.89,10.32,10.21,11.82C385.7,102,393.7,84.14,393.7,84.14Z" style="fill:#ffc4c0"></path><path d="M374.23,74.34c-1.48-.18-3-.37-4.45-.42s-3,0-4.46,0a25.27,25.27,0,0,0-5.73.9,54.2,54.2,0,0,1,10.19-.54c1.48,0,3,0,4.45.06C374.27,74.39,374.26,74.34,374.23,74.34Z" style="fill:#263238"></path><path d="M374.16,79.7c-1.9-.15-3.77-.36-5.67-.42s-3.69,0-5.58.11c-.14,0-.09.08,0,.08,1.89,0,3.64.16,5.53.19s3.79,0,5.67.09C374.19,79.75,374.18,79.7,374.16,79.7Z" style="fill:#263238"></path><path d="M374.92,84.32a43,43,0,0,0-8.71,0c-.14,0-.07.1.08.1,2.9-.06,5.17-.13,8.62,0C375,84.42,375,84.33,374.92,84.32Z" style="fill:#263238"></path><path d="M390.5,80.78l1,26.24s16.11,8,21,6.19c3.24-1.2.85-18.87-7.8-24.23Z" style="fill:#FFC727"></path><path d="M411.94,99.11A17.42,17.42,0,0,0,404.73,89c-.05,0-.1,0-.06.06,3.46,2.72,6.56,8.29,7.2,10.12A0,0,0,1,0,411.94,99.11Z" style="fill:#263238"></path><path d="M397.28,107.57c0-2.89-.07-5.78-.18-8.67s-.23-5.78-.42-8.67c-.11-1.63-.21-3.27-.37-4.9,0,0-.08,0-.08,0-.05,2.89,0,5.78.15,8.67s.23,5.78.38,8.67c.09,1.64.21,3.27.37,4.9C397.14,107.65,397.28,107.66,397.28,107.57Z" style="fill:#263238"></path><path d="M390.64,80.57a25,25,0,0,1,3,1.53c1,.54,2,1.11,2.92,1.68a67.62,67.62,0,0,1,9.28,6s-.29.05-.32,0c-1.43-1.32-13.91-8.1-14.84-8.77a2.44,2.44,0,0,1-.06.26c0,.06-.11.08-.13,0a4.53,4.53,0,0,1-.08-.49A.16.16,0,0,1,390.64,80.57Z" style="fill:#263238"></path></g><g id="freepik--character-1--inject-507"><path d="M168.46,277.38c-1.66.54-49.14-.07-50.93-1.24-.69-.43-1-7.36-1.15-15.73v-.27c0-1.72,0-3.5-.06-5.3,0-.25,0-.5,0-.74l2.3-24.64,31.76.31-3.13,24.41,0,1-.19,5.05,0,.52s18.07,8.36,19.9,9.86S170.13,276.85,168.46,277.38Z" style="fill:#d3766a"></path><path d="M168.46,277.38c-1.66.54-49.14-.07-50.93-1.24-.69-.43-1-7.36-1.15-15.73v-.27c0-1.72,0-3.5-.06-5.3,0-.25,0-.5,0-.74l30.93.08,0,1-.19,5.05,0,.52s18.07,8.36,19.9,9.86S170.13,276.85,168.46,277.38Z" style="fill:#ebebeb"></path><path d="M168.47,277.38c-.86.27-13.76.25-26.37,0-2.53-.05-5-.1-7.46-.17-9-.24-16.42-.61-17.11-1.06s-1-7.16-1.14-15.38v-.35a2.44,2.44,0,0,0,0-.27h0l30.6.05,0,.52s18.07,8.36,19.91,9.85S170.13,276.85,168.47,277.38Z" style="fill:#FFC727"></path><path d="M168,275.53c-8-.3-40.3-.75-48.23-.43-.07,0-.07,0,0,0,7.92.47,40.22.65,48.23.51C168.12,275.66,168.12,275.54,168,275.53Z" style="fill:#263238"></path><path d="M150.43,260.32c-3.15-.62-7-.19-9.44,2-.09.09,0,.22.13.19a44.39,44.39,0,0,1,9.29-1.81A.2.2,0,0,0,150.43,260.32Z" style="fill:#263238"></path><path d="M152.68,261.72c-3.14-.63-7-.19-9.43,2-.1.09,0,.22.13.19a44.42,44.42,0,0,1,9.28-1.81A.2.2,0,0,0,152.68,261.72Z" style="fill:#263238"></path><path d="M154.94,263.12c-3.14-.63-7-.19-9.44,2-.09.09,0,.22.13.19a44.39,44.39,0,0,1,9.29-1.81A.2.2,0,0,0,154.94,263.12Z" style="fill:#263238"></path><path d="M142.1,277.37c-2.53-.05-5-.1-7.46-.17-9-.24-16.42-.61-17.11-1.06s-1-7.16-1.14-15.38v-.35a2.44,2.44,0,0,0,0-.27h0C120.61,263.08,135.38,272.91,142.1,277.37Z" style="fill:#263238"></path><path d="M148.85,260.3h-34.2s6.87-79.87,6.6-81.27c-.34-1.78-2.36-9.87-5-20.43-.85-3.3-1.76-6.85-2.7-10.52-2.55-9.94-5.37-20.79-7.82-30.24A206.23,206.23,0,0,0,99.14,96.4h29s23.82,68.21,24.77,82.3C153.72,191,148.85,260.3,148.85,260.3Z" style="fill:#263238"></path><path d="M147.33,254.46c-5.22-.1-3.72-.15-9-.2-2.55,0-19.35-.16-21.74.23a.06.06,0,0,0,0,.11c2.39.39,19.19.24,21.74.22,5.23,0,3.73-.09,9-.2A.08.08,0,0,0,147.33,254.46Z" style="fill:#37474f"></path><path d="M127.68,174.16c-1.12-4.94-2.8-9.79-4.26-14.64q-4.44-14.79-9-29.56c-1.5-4.92-8.45-23.34-9.13-25.79-.28-1-.44-.45-.08.81.72,2.55,12.6,39.08,15.61,49.09q2.25,7.52,4.53,15a63.1,63.1,0,0,1,1.85,7.28,33.86,33.86,0,0,1,.3,7.79c-.33,5.23-.93,10.46-1.41,15.68s-1,10.46-1.45,15.69q-1.44,15.62-2.86,31.23-.18,2-.33,4c0,.44.63.41.68,0,1.12-10.29,2-20.62,2.95-30.93S127.05,199.28,128,189c.24-2.58.52-5.16.52-7.75A32.13,32.13,0,0,0,127.68,174.16Z" style="fill:#37474f"></path><path d="M124.82,96.39c-2,15.57-5.83,41.05-8.62,62.22C109.65,133,99.14,96.4,99.14,96.4Z" style="fill:#37474f"></path><path d="M133.1,277.85c-1.66.54-49.14.11-50.94-1.06-.69-.43-1-7.35-1.2-15.73v-.26c0-1.73-.07-3.5-.08-5.31,0-.24,0-.49,0-.74-.12-12.09.75-24.63.75-24.63l31,.19-.86,24.41,0,1-.17,5.06v.52s18.1,8.29,19.94,9.78S134.77,277.31,133.1,277.85Z" style="fill:#d3766a"></path><path d="M133.1,277.85c-1.66.54-49.14.11-50.94-1.06-.69-.43-1-7.35-1.2-15.73v-.26c0-1.73-.07-3.5-.08-5.31,0-.24,0-.49,0-.74l30.93,0,0,1-.17,5.06v.52s18.1,8.29,19.94,9.78S134.77,277.31,133.1,277.85Z" style="fill:#ebebeb"></path><path d="M133.1,277.85c-1.66.54-49.14.11-50.94-1.06-.69-.43-1-7.35-1.2-15.73v-.26l30.63-.06v.52s18.1,8.29,19.94,9.78S134.77,277.31,133.1,277.85Z" style="fill:#FFC727"></path><path d="M132.58,276c-8-.27-40.3-.6-48.23-.26-.07,0-.07.05,0,.05,7.92.44,40.23.51,48.23.34C132.75,276.13,132.75,276,132.58,276Z" style="fill:#263238"></path><path d="M115,260.85c-3.14-.61-7-.16-9.43,2.06-.09.08,0,.22.14.19a43.65,43.65,0,0,1,9.27-1.85A.2.2,0,0,0,115,260.85Z" style="fill:#263238"></path><path d="M117.26,262.25c-3.14-.62-7-.17-9.43,2.05-.09.09,0,.22.14.19a44.24,44.24,0,0,1,9.28-1.85A.2.2,0,0,0,117.26,262.25Z" style="fill:#263238"></path><path d="M119.52,263.64c-3.14-.62-7-.17-9.42,2.05-.1.09,0,.22.13.19a44.24,44.24,0,0,1,9.28-1.85A.2.2,0,0,0,119.52,263.64Z" style="fill:#263238"></path><path d="M127.92,96.39a112.42,112.42,0,0,1-3.84,21.15c-.25.91-.53,1.8-.83,2.66,0,0-2.56,1.2-7.61,4.29,0,0-.33,11.16-.66,23.6-.37,13.91-.75,29.42-.67,32.71.3,12.31-1.52,80-1.52,80L78.6,261s6.17-75.59,6.12-80.1c-.07-7.25,1.65-39.29,3-62.66.81-14.39,1.48-21.79,1.48-21.79Z" style="fill:#263238"></path><path d="M111.62,254.73c-5.23-.09-3.73-.14-9-.17-2.55,0-19.35-.08-21.74.33a.05.05,0,0,0,0,.1c2.39.39,19.19.17,21.74.13,5.23-.07,3.73-.11,9-.24A.07.07,0,1,0,111.62,254.73Z" style="fill:#37474f"></path><path d="M92,101.35c-.62,19.08-1.28,34.45-2.13,53.52s-2,38.25-3.6,57.34c-.89,10.66-1.73,25.66-2.88,36.29,0,.08.1.1.11,0,2.49-18.92,3.87-42.32,5.09-61.36s2-38.11,2.69-57.17c.36-10.79.64-17.87,1-28.66C92.29,101.19,92.05,101.2,92,101.35Z" style="fill:#37474f"></path><path d="M93.36,113.75a25.14,25.14,0,0,1,2.6-.42c.69-.11,1.38-.23,2.07-.39a9,9,0,0,0,3.65-1.53c1.7-1.34,3.66-8.09,3.9-8.52.41-.74.53-.09.53,0a39.26,39.26,0,0,1-2.49,7.8c-1.27,2-3.53,2.83-5.8,3.12-.65.08-1.31.13-2,.16a13.7,13.7,0,0,1-2.48,0A.11.11,0,0,1,93.36,113.75Z" style="fill:#37474f"></path><path d="M123.14,120.36a62.36,62.36,0,0,0-9.63,4.48c-.12.07,0,.26.09.2,3.25-1.39,6.56-2.72,9.72-4.29A.21.21,0,0,0,123.14,120.36Z" style="fill:#37474f"></path><path d="M124.12,98.14c0-.11-.21-.13-.2,0a108.25,108.25,0,0,1-.55,10.83c-.15,1.67-1.49,10.91-4.39,10.23-.49-.11-.73-.59-.81-1.32a11.49,11.49,0,0,1,.39-2.83c.32-1.93.58-3.87.74-5.82a52.54,52.54,0,0,0-.12-10.93.09.09,0,0,0-.18,0,99.94,99.94,0,0,1-.89,15.08c-.36,2.41-1.57,6,.94,6.39s4.22-5.68,4.53-7.34A55.14,55.14,0,0,0,124.12,98.14Z" style="fill:#37474f"></path><path d="M119.06,119.44a14.5,14.5,0,0,0-.66,1.92,4.71,4.71,0,0,0-.27,1.57.11.11,0,0,0,.2,0,5.54,5.54,0,0,0,.68-1.53c.22-.59.45-1.18.65-1.78A.32.32,0,0,0,119.06,119.44Z" style="fill:#37474f"></path><path d="M123.45,55.34c10.37,12.18,22.7,37.11,19.72,41.76-3.33,5.18-17.76-11.89-17.63-12.82.1-.7-4.32-15.61-7.71-26.48S120.88,52.32,123.45,55.34Z" style="fill:#d3766a"></path><path d="M125.44,84.29C125.07,82.7,119,63,117.32,56.81s.43-7.94,6.12-2,17.69,25.5,20,35.55c2.24,9.68-2.63,9.32-8.74,4.48C129.71,90.93,125.44,84.29,125.44,84.29Z" style="fill:#FFC727"></path><g style="opacity:0.4"><path d="M125.44,84.29C125.07,82.7,119,63,117.32,56.81s.43-7.94,6.12-2,17.69,25.5,20,35.55c2.24,9.68-2.63,9.32-8.74,4.48C129.71,90.93,125.44,84.29,125.44,84.29Z"></path></g><path d="M143.17,97.5c-1.48,1.62-4.73.34-8.45-2.6-5-4-9.28-10.61-9.28-10.61-.37-1.58-6.43-21.27-8.12-27.48-.79-2.93-.74-4.87.14-5.45a3.25,3.25,0,0,1,.44.19Z" style="opacity:0.1"></path><path d="M87.57,100.51c.09.11,41.92-1,42.32-1.38.15-.15-4.28-37-10-46.13-2.38-3.76-10-4.87-13.3,0C91.71,75,87.45,100.36,87.57,100.51Z" style="fill:#ebebeb"></path><path d="M118.45,51.19l4.21,15L127,106.53l5.85-4.76S125.7,57.15,118.45,51.19Z" style="fill:#FFC727"></path><g style="opacity:0.4"><path d="M118.45,51.19l4.21,15L127,106.53l5.85-4.76S125.7,57.15,118.45,51.19Z"></path></g><path d="M110,50.31s5.19,18.93,5,20.67-1.76,37.52-1.76,37.52l-26.79-6S97.76,55.77,110,50.31Z" style="fill:#FFC727"></path><path d="M110,50.31s5.19,18.93,5,20.67-1.76,37.52-1.76,37.52l-26.79-6S97.76,55.77,110,50.31Z" style="opacity:0.4"></path><path d="M142.54,96.83c-3.2,3-8.2,3.44-25.69,3.33-2.42,0-8.71-16.52-6.24-17.27,3.3-1,16.58-.73,17.5-.6C135.92,83.36,144.71,94.76,142.54,96.83Z" style="fill:#d3766a"></path><path d="M112.79,82.55s-7.61,1-11.44,2.8a27,27,0,0,0-9.91,8.38c-2.8,3.83-6.92,15-3.9,16.76,2.73,1.58,6.36-10.06,6.36-10.06s-5.66,11.26-2,12.56S99,100.53,99,100.53,93.4,112.23,97.36,113c3,.57,6.81-11.72,6.81-11.72s-4.7,10.09-1.65,10.81c3.38.79,7.62-10.33,7.62-10.33,8.06.5,12.11-2.56,14.73-5.07C125.51,96.06,112.79,82.55,112.79,82.55Z" style="fill:#d3766a"></path><path d="M95.6,96.4c-.71,1.3-1.44,2.61-2,4A44.47,44.47,0,0,0,92,104.52a25.24,25.24,0,0,0-1.29,5.64A54.26,54.26,0,0,1,94,100.52c.59-1.35,1.11-2.74,1.71-4.09A0,0,0,0,0,95.6,96.4Z" style="fill:#263238"></path><path d="M100.55,98.46c-.84,1.7-1.74,3.36-2.5,5.09s-1.33,3.43-2,5.21c0,.14,0,.12.1,0,.71-1.75,1.5-3.31,2.23-5s1.39-3.5,2.18-5.21A0,0,0,0,0,100.55,98.46Z" style="fill:#263238"></path><path d="M105.11,99.47a42.36,42.36,0,0,0-3.23,8.07c0,.14.07.1.13,0,1-2.7,1.8-4.83,3.18-8C105.22,99.47,105.14,99.41,105.11,99.47Z" style="fill:#263238"></path><path d="M113.16,81.56l11.55,19.63s15.61-.41,18.58-3.79c2-2.22-7.23-14.65-15.94-15.18Z" style="fill:#FFC727"></path><path d="M113.16,81.56l11.55,19.63s15.61-.41,18.58-3.79c2-2.22-7.23-14.65-15.94-15.18Z" style="opacity:0.4"></path><path d="M129.3,99.25c-1.14-2.2-2.4-4.33-3.66-6.47s-2.53-4.27-3.84-6.38c-.75-1.19-1.49-2.38-2.27-3.54,0,0-.08,0-.06,0,1.14,2.2,2.39,4.34,3.63,6.48s2.53,4.28,3.82,6.4c.73,1.19,1.49,2.38,2.27,3.54C129.23,99.37,129.34,99.32,129.3,99.25Z" style="fill:#263238"></path><path d="M113.49,82.12l-.52-.61-.06-.07c2-.11,4.06-.16,6.1-.13a50.39,50.39,0,0,1,10.48.93A16.11,16.11,0,0,1,136,86a19.07,19.07,0,0,0-6.6-3.27,32.51,32.51,0,0,0-4.4-.58c-3.45-.28-8.44-.47-11.95-.65l0-.08.44.67Z" style="fill:#263238"></path><path d="M101.53,59.64C91.84,78.42,88.17,95,95.85,99.47c5.1,2.94,10.49-14.08,10.62-14.44a92.28,92.28,0,0,0,4.59-24C111.76,47.26,105.86,51.25,101.53,59.64Z" style="fill:#d3766a"></path><path d="M101.53,59.64C91.84,78.42,88.17,95,95.85,99.47c5.1,2.94,11.54-10.64,11.67-11,.45-1.22,2.89-15,3.54-27.46C111.76,47.26,105.86,51.25,101.53,59.64Z" style="fill:#FFC727"></path><g style="opacity:0.4"><path d="M101.53,59.64C91.84,78.42,88.17,95,95.85,99.47c5.1,2.94,11.54-10.64,11.67-11,.45-1.22,2.89-15,3.54-27.46C111.76,47.26,105.86,51.25,101.53,59.64Z"></path></g><path d="M111,62.59c-.56,8.3-1.26,16.65-3.15,24.77,1.2-8.11,1.94-16.67,3.15-24.77Z" style="fill:#263238"></path><path d="M111.59,63.9a6.37,6.37,0,0,1-1.11,3.34c.43-1.1.67-2.24,1.11-3.34Z" style="fill:#263238"></path><path d="M97.56,98.67c4.7,2.16,18-2.83,29.72-10.89,2.22-1.53-5.93-17.56-8.38-16-6.52,4.07-19.68,10.41-23.53,16.51C92.38,93,94.31,97.17,97.56,98.67Z" style="fill:#d3766a"></path><path d="M129.78,71.75c-1.14-.11-1.09-.71.62-1.8s9.38-4,8.15-6.54-12,1.6-14.69,3.63a53.67,53.67,0,0,0-6.36,6.27C119.76,72.91,125.33,72.47,129.78,71.75Z" style="fill:#d3766a"></path><path d="M122.23,89.52c6.32-1.35,14.27-2.64,19.65-7.57a3.63,3.63,0,0,0,1.17-2.06c2.45-2.16,2.16-4,2.16-4,1.67-2.72,1.12-4.52,1.12-4.52s2.85-2.58,1.57-4.56c-1.41-2.22-5.13,1.83-8.54,2.81-7.81,2.24-19.54,3.23-21.86,3.66Z" style="fill:#d3766a"></path><path d="M132.82,77.75a53.08,53.08,0,0,0,6.73-2.35,52.69,52.69,0,0,0,6.69-4c.07,0,.14.05.08.1a27.64,27.64,0,0,1-13.47,6.37C132.74,77.87,132.71,77.78,132.82,77.75Z" style="fill:#263238"></path><path d="M133.49,82.66a38.63,38.63,0,0,0,11.68-6.8s.05,0,0,0a24.8,24.8,0,0,1-11.67,6.87C133.39,82.8,133.34,82.71,133.49,82.66Z" style="fill:#263238"></path><path d="M133.9,85.29a39,39,0,0,0,9.13-5.4s.05,0,0,0a23.18,23.18,0,0,1-9.13,5.5C133.79,85.47,133.75,85.35,133.9,85.29Z" style="fill:#263238"></path><path d="M118.43,93.15c2.37-1.53,5-2.9,7.4-4.39a40.31,40.31,0,0,1-7.4,4.39Z" style="fill:#263238"></path><path d="M113.58,70.1,120,93.74s-19.72,8.68-23.3,6-6-7.84.21-16.65C98.51,80.84,113.58,70.1,113.58,70.1Z" style="fill:#FFC727"></path><path d="M113.58,70.1,120,93.74s-19.72,8.68-23.3,6-6-7.84.21-16.65C98.51,80.84,113.58,70.1,113.58,70.1Z" style="opacity:0.4"></path><path d="M109.72,75.57c.34,1.12.59,2.28.86,3.42s.53,2.29.77,3.44c.49,2.3,1,4.6,1.41,6.9.13.63.25,1.26.36,1.9s.15,1.37.28,2c0,0-.07.07-.09,0-.13-.56-.34-1.11-.48-1.67s-.28-1.16-.41-1.75c-.26-1.14-.51-2.29-.75-3.44-.5-2.29-1-4.59-1.39-6.9-.24-1.31-.52-2.62-.67-3.94A.06.06,0,0,1,109.72,75.57Z" style="fill:#263238"></path><path d="M114.7,74.22l-1.12-4.12c-3,2.63-13.59,10.06-15.75,12.32a22.54,22.54,0,0,0-3.66,5.5,20.82,20.82,0,0,1,3.25-5.84c2.47-2.78,14.67-11.14,16.3-12.31Z" style="fill:#263238"></path><path d="M119.68,92.46s.37,1.28.37,1.3a104.09,104.09,0,0,1-13,5.07c-8.48,2.66-14.38,2.78-15.4-7.68-.84-7.09,2.68-13.72,5.1-20.17-1.82,5.44-4.37,10.89-4.78,16.66,0,3.37.2,7.1,2.22,9.9,3,4.1,8.66,1.88,12.75.91A123.68,123.68,0,0,0,120,93.72c0,.15-.34-1.3-.34-1.26Z" style="fill:#263238"></path><path d="M118.82,58c-2.44.46-6.93-3.73-8.43-6.79a49.19,49.19,0,0,1,.68-5c.22-1.59.42-3.37.5-5l10.17,3a26.23,26.23,0,0,0-1.27,6.25,3.66,3.66,0,0,0,0,.67s0,.07,0,.11C120.67,52.45,121.17,57.51,118.82,58Z" style="fill:#d3766a"></path><path d="M120.51,51.05s0,.07,0,.11a6.15,6.15,0,0,1-1.06,0c-5.94-.4-7-7.74-7.21-9.8l2.54.73,6.95,2a25.7,25.7,0,0,0-1.27,6.25A3,3,0,0,0,120.51,51.05Z" style="fill:#263238"></path><path d="M110.37,29.39C109.2,33,111,43.59,113.53,46c3.71,3.46,9.86,3.88,12.82-.59s.33-18.08-2.53-20.26C119.6,21.92,112.1,24,110.37,29.39Z" style="fill:#d3766a"></path><path d="M120.37,35.89s-.05,0-.05.07c.13.72.15,1.55-.47,1.88,0,0,0,0,0,0C120.64,37.66,120.6,36.55,120.37,35.89Z" style="fill:#263238"></path><path d="M119.63,35.24c-1.16.07-.93,2.39.15,2.32S120.6,35.17,119.63,35.24Z" style="fill:#263238"></path><path d="M124.43,35.35s.06,0,.06.06c.05.72.23,1.53.9,1.71,0,0,0,0,0,0C124.59,37.13,124.36,36,124.43,35.35Z" style="fill:#263238"></path><path d="M125,34.53c1.14-.2,1.47,2.11.4,2.3S124,34.71,125,34.53Z" style="fill:#263238"></path><path d="M118.77,35c.32,0,.62-.13.93-.2a1.53,1.53,0,0,0,.92-.39.5.5,0,0,0,0-.6,1.23,1.23,0,0,0-1.21-.28,1.77,1.77,0,0,0-1.12.63A.53.53,0,0,0,118.77,35Z" style="fill:#263238"></path><path d="M125.79,32.5c-.33,0-.62-.09-.94-.14a1.55,1.55,0,0,1-.94-.33.5.5,0,0,1,0-.61,1.24,1.24,0,0,1,1.18-.35,1.78,1.78,0,0,1,1.16.58A.52.52,0,0,1,125.79,32.5Z" style="fill:#263238"></path><path d="M120.07,42.38c.19.15.39.37.65.36a1.87,1.87,0,0,0,.75-.26s0,0,0,0a1,1,0,0,1-.87.48.78.78,0,0,1-.63-.58S120.05,42.36,120.07,42.38Z" style="fill:#263238"></path><path d="M120.61,40.15a2.45,2.45,0,0,0,1.74.93,3,3,0,0,0,.89,0l.16,0,.16,0a.18.18,0,0,0,.13-.17h0a.64.64,0,0,1,0-.07h0v-.06c0-.55-.18-1.39-.18-1.39.22.08,1.29.44,1.25.15a37.17,37.17,0,0,0-1.7-7.3c0-.08-.14-.05-.13,0,.28,2.3,1,4.54,1.28,6.84a4.16,4.16,0,0,0-1.19-.23c-.08,0,.3,1.61.3,1.86v0a3.35,3.35,0,0,1-2.61-.53S120.56,40.1,120.61,40.15Z" style="fill:#263238"></path><path d="M122.92,40.89a2.93,2.93,0,0,1-1.09,1,1.37,1.37,0,0,1-.78.1c-.58-.11-.63-.63-.56-1.08a2.93,2.93,0,0,1,.21-.7A3.75,3.75,0,0,0,122.92,40.89Z" style="fill:#263238"></path><path d="M121.83,41.87a1.37,1.37,0,0,1-.78.1c-.58-.11-.63-.63-.56-1.08A1.34,1.34,0,0,1,121.83,41.87Z" style="fill:#ff98b9"></path><path d="M126.06,29.29c-.47-.92-1.28-2-1.85-2.18s-.54,1.6-1.82,1.77c-1.74.22-2.93-2-5.67-1.31-1.66.4-3.23,1.55-2.29,7.23.74,4.39-3.56,5.58-3.56,5.58s-2.72-9.75-.15-13.16,8.53-5.2,13-2.37C125.31,25.89,126.06,29.29,126.06,29.29Z" style="fill:#263238"></path><path d="M119.44,40.07a3,3,0,1,1,3-3.74h0A3,3,0,0,1,120.18,40,3.12,3.12,0,0,1,119.44,40.07Zm0-5.63a2.79,2.79,0,0,0-.64.07,2.62,2.62,0,1,0,.64-.07Z" style="fill:#FFC727"></path><path d="M126.32,39.29c-1.16,0-2.19-1.21-2.36-2.77a3.6,3.6,0,0,1,.4-2.16,2,2,0,0,1,1.5-1.08,2,2,0,0,1,1.7.73,3.57,3.57,0,0,1,.86,2c.18,1.65-.68,3.1-1.91,3.24Zm-.26-5.62h-.15a1.61,1.61,0,0,0-1.2.88,3.2,3.2,0,0,0-.35,1.92c.15,1.43,1.1,2.51,2.11,2.4s1.71-1.37,1.55-2.8a3.27,3.27,0,0,0-.76-1.8A1.68,1.68,0,0,0,126.06,33.67Z" style="fill:#FFC727"></path><path d="M122.33,36.69l-.29-.28a1.65,1.65,0,0,1,2.23-.35l-.26.3C123.27,35.73,122.37,36.65,122.33,36.69Z" style="fill:#FFC727"></path><path d="M109.06,38.91l-.38-.15c.07-.17.69-1.72,1.57-2s6.25-.3,6.48-.3v.4c-1.56,0-5.75.11-6.38.29S109.22,38.48,109.06,38.91Z" style="fill:#FFC727"></path><path d="M113.53,38.85s-2.4-3.39-3.94-2.54.27,5.79,2.09,6.46a1.85,1.85,0,0,0,2.47-1Z" style="fill:#d3766a"></path><path d="M110.14,37.71s0,0,0,0a4.67,4.67,0,0,1,2.42,2.91A1,1,0,0,0,111,40.4s0,.08,0,.07a1.12,1.12,0,0,1,1.25.39,5.43,5.43,0,0,1,.61,1c.06.11.26.05.22-.08v0C113.16,40.13,111.89,37.87,110.14,37.71Z" style="fill:#263238"></path><path d="M120.53,50.38l-2.59,6.11-7.5-7.94L108.22,51s7.25,12.52,7.31,12l2.63-5.26,3.59,3.76-.12-9.27Z" style="fill:#ebebeb"></path><path d="M122,56.89c-.07-1.54-.1-3.08-.24-4.6,0-.06-.09-.08-.1,0-.34,1.47,0,7.32-.07,8.72h0c-.15-.17-3.33-3.32-3.37-3.27-.56.83-2.5,4.66-2.63,5-1.15-2-5.55-9.22-6.91-11.1,0-.06-.13,0-.1.05,1,2.09,6.83,11.83,6.92,11.8a58.61,58.61,0,0,0,2.76-5.56,40.68,40.68,0,0,0,3.76,4A46.89,46.89,0,0,0,122,56.89Z" style="fill:#263238"></path></g></svg>
